<?xml version="1.0" standalone="no"?>
<!DOCTYPE svg PUBLIC "-//W3C//DTD SVG 20010904//EN"
 "http://www.w3.org/TR/2001/REC-SVG-20010904/DTD/svg10.dtd">
<svg version="1.0" xmlns="http://www.w3.org/2000/svg"
 width="1120.000000pt" height="220.000000pt" viewBox="0 0 1120.000000 220.000000"
 preserveAspectRatio="xMidYMid meet">

<g transform="translate(0.000000,220.000000) scale(0.100000,-0.100000)"
fill="#ffffff" stroke="none">
<path d="M77 1338 l3 -793 285 -3 285 -2 0 412 c0 227 5 431 10 453 16 69 31
75 200 75 134 0 150 -2 174 -21 l26 -20 2 -447 3 -447 293 -3 292 -2 0 412 c0
445 -4 488 -54 587 -14 27 -46 67 -71 89 -84 74 -94 75 -505 81 l-365 6 -3
208 -2 207 -288 0 -287 0 2 -792z"/>
<path d="M5360 1335 l0 -795 288 2 287 3 5 448 5 449 24 19 c20 17 40 19 168
19 165 0 196 -9 207 -61 3 -17 6 -222 6 -455 l0 -424 290 0 290 0 0 421 c0
448 -4 488 -51 581 -30 59 -91 113 -155 139 -57 23 -69 24 -421 27 l-363 3 0
210 0 209 -290 0 -290 0 0 -795z"/>
<path d="M1820 1294 c0 -346 3 -426 16 -477 28 -110 83 -191 154 -227 93 -48
132 -50 786 -50 l614 0 0 575 c0 316 0 578 0 583 0 4 -129 7 -287 7 l-288 0
-5 -448 c-5 -428 -6 -449 -24 -463 -30 -21 -72 -26 -209 -22 -116 3 -128 5
-149 26 l-23 23 -3 444 -3 445 -290 0 -289 0 0 -416z"/>
<path d="M3840 1700 c-94 -16 -174 -69 -210 -140 -46 -90 -52 -145 -48 -459 4
-317 10 -356 61 -432 34 -51 106 -94 187 -113 59 -13 134 -16 401 -16 l329 0
0 -70 c0 -63 -3 -73 -29 -102 l-29 -33 -176 -3 -177 -4 3 -111 3 -112 360 0
c311 0 367 2 415 17 98 31 160 94 196 201 16 47 18 116 21 720 l4 667 -633 -1
c-348 -1 -653 -5 -678 -9z m700 -240 c19 -19 20 -33 20 -333 0 -306 -1 -314
-21 -333 -19 -17 -38 -19 -176 -19 -151 0 -155 1 -174 24 -18 22 -19 43 -19
332 0 384 -20 349 197 349 140 0 155 -2 173 -20z"/>
<path d="M7087 1704 c-4 -4 -7 -268 -7 -586 l0 -578 268 2 267 3 2 450 c3 445
3 450 24 468 18 14 42 17 143 17 182 0 165 50 168 -491 l3 -444 265 0 265 0 5
452 c5 437 6 453 25 467 15 12 49 15 141 16 105 0 125 -3 145 -19 l24 -19 3
-451 3 -451 262 2 262 3 3 405 c2 268 -1 428 -9 473 -15 92 -68 197 -117 230
-79 55 -23 52 -1117 55 -562 1 -1024 0 -1028 -4z"/>
<path d="M9532 908 l3 -803 288 -3 287 -2 0 204 c0 112 3 211 6 220 5 14 44
16 334 16 398 0 447 7 542 82 21 16 49 54 65 86 l28 57 0 360 c0 358 0 360
-24 413 -28 62 -89 119 -157 147 -47 19 -78 20 -712 23 l-662 3 2 -803z m953
547 l25 -24 0 -304 c0 -285 -1 -306 -19 -328 -18 -23 -26 -24 -169 -27 -147
-3 -150 -3 -178 21 l-29 25 -3 279 c-2 153 0 293 3 311 3 17 16 41 27 52 20
18 36 20 170 20 145 0 150 -1 173 -25z"/>
</g>
</svg>
