<svg width="405" height="406" xmlns="http://www.w3.org/2000/svg" preserveAspectRatio="xMidYMid meet">
 <metadata>Created by potrace 1.14, written by Peter Selinger 2001-2017</metadata>

 <g>
  <title>background</title>
  <rect fill="none" id="canvas_background" height="408" width="407" y="-1" x="-1"/>
 </g>
 <g>
  <title>Layer 1</title>
  <ellipse ry="200" rx="200" id="svg_4" cy="203.5" cx="202" stroke-width="0" stroke="#000" fill="#fff"/>
  <g id="svg_1" fill="#000000" transform="translate(0,506) scale(0.10000000149011612,-0.10000000149011612) ">
   <path fill="#0c59a0" id="svg_3" d="m1002,3068l3,-1093l395,0l395,0l5,605c4,489 8,610 19,632c26,50 60,58 264,58c194,0 222,-4 256,-41c21,-23 21,-27 21,-630c0,-501 2,-609 14,-618c9,-8 123,-10 402,-9l389,3l3,579c2,553 1,583 -18,653c-34,123 -74,196 -144,260c-66,61 -137,92 -246,108c-25,3 -242,6 -482,5c-295,0 -444,3 -458,10c-19,10 -20,21 -20,290l0,280l-400,0l-400,0l2,-1092z"/>
  </g>
 </g>
</svg>